<?xml version="1.0" ?><svg id="Layer_1" style="enable-background:new 0 0 512 512;" version="1.1" viewBox="0 0 512 512" xml:space="preserve" xmlns="http://www.w3.org/2000/svg" xmlns:xlink="http://www.w3.org/1999/xlink"><style type="text/css">
	.st0{fill:#526684;}
</style><g><polygon class="st0" points="366.5,15.8 366.5,103.9 460.8,103.9  "/><path class="st0" d="M324.6,389.8h-10.8v17.7h10.8c3.1,0,5.4-0.8,7-2.5c1.6-1.6,2.3-3.7,2.3-6.3s-0.8-4.7-2.3-6.4   C330,390.6,327.7,389.8,324.6,389.8z"/><path class="st0" d="M423.1,389.8h-10.8v17.7h10.8c3.1,0,5.4-0.8,7-2.5c1.6-1.6,2.3-3.7,2.3-6.3s-0.8-4.7-2.3-6.4   C428.5,390.6,426.2,389.8,423.1,389.8z"/><path class="st0" d="M257.3,361.9l28.5,46.2l-28.5,46.2h231.5v-92.4H257.3z M337.5,409.9c-3.1,2.8-7.4,4.2-13,4.2h-10.8v19h-8.3   v-50h19.2c5.5,0,9.8,1.4,13,4.3s4.7,6.6,4.7,11.2C342.2,403.3,340.7,407.1,337.5,409.9z M391.3,433.1H383v-21.3h-22.4v21.3h-8.3   v-50h8.3v22H383v-22h8.3V433.1z M436.1,409.9c-3.1,2.8-7.4,4.2-13,4.2h-10.8v19H404v-50h19.2c5.5,0,9.8,1.4,13,4.3   s4.7,6.6,4.7,11.2C440.8,403.3,439.2,407.1,436.1,409.9z"/><polygon class="st0" points="123.4,167.5 123.4,114.6 78,114.6 78,105.1 23.2,105.1 23.2,177 78,177 78,167.5  "/><polygon class="st0" points="123.4,397.4 123.4,344.5 78,344.5 78,335 23.2,335 23.2,406.9 78,406.9 78,397.4  "/><polygon class="st0" points="274.7,408.1 240.3,352.4 466.6,352.4 466.6,114.7 355.7,114.7 355.7,6 78,6 78,105.1 132.9,105.1    132.9,177 78,177 78,335 132.9,335 132.9,406.9 78,406.9 78,506 466.6,506 466.6,463.8 240.3,463.8  "/></g></svg>